# xmcd CD database file
# Copyright (C) 1997 Ti Kan
# 
# Track frame offsets:
#     150
#     14617
#     29577
#     43147
#     58302
#     70677
#     83175
#     95875
#     108965
#     123892
#     138962
#     151635
#     164725
#     179030
#     192455
#     213230
# 
# Disc length: 3034 seconds
# 
# Revision: 1
# Processed by: cddbd v1.4b41PL1 Copyright (c) Steve Scherf et al.
# Submitted via: DiscPlay 4.0.4
# 
DISCID=ea0bd810
DTITLE=Z.Z. Hill - The Complete Hill Records Collection - UA Recordings, 197
DTITLE=2-1975 [CD1]
DYEAR=1900
DGENRE=
TTITLE0=I've Got To Get You Back
TTITLE1=You Were Wrong
TTITLE2=Your Love Makes Me Feel Good
TTITLE3=My Adorable One
TTITLE4=Can I Get A Witness?
TTITLE5=Love In The Street
TTITLE6=Your Love
TTITLE7=Cause I Love You
TTITLE8=Dream Don't Let Me Down
TTITLE9=Friendship Only Goes So Far
TTITLE10=The Red Rooster
TTITLE11=Ain't Nothing You Can Do
TTITLE12=It Ain't Safe
TTITLE13=Let Them Talk
TTITLE14=Am I Groovin' You?
TTITLE15=Snap Your Fingers
EXTD=
EXTT0=
EXTT1=
EXTT2=
EXTT3=
EXTT4=
EXTT5=
EXTT6=
EXTT7=
EXTT8=
EXTT9=
EXTT10=
EXTT11=
EXTT12=
EXTT13=
EXTT14=
EXTT15=
PLAYORDER=
